<?xml version="1.0"?>
<svg width="250mm" height="200mm" viewBox="0 0 2750 1500"
     xmlns="http://www.w3.org/2000/svg"
     xmlns:xlink="http://www.w3.org/1999/xlink"
     xmlns:ev="http://www.w3.org/2001/xml-events">
<g font-family="Verdana" font-size="8">
  <text x="1" y="1">ERROR - COULD NOT COMPLETE DRAWING! Examine ERR file for possible explanation. Last error message is:   "Error: OrganizeSubDiagram stopped from runaway condition."</text>
  <line x1="300" y1="510" x2="300" y2="590" style="stroke:silver;"/>
  <line x1="300" y1="510" x2="300" y2="670" style="stroke:silver;"/>
  <line x1="300" y1="510" x2="300" y2="750" style="stroke:silver;"/>
  <line x1="300" y1="510" x2="300" y2="830" style="stroke:silver;"/>
  <line x1="300" y1="510" x2="300" y2="910" style="stroke:silver;"/>
  <line x1="300" y1="590" x2="300" y2="670" style="stroke:silver;"/>
  <line x1="300" y1="590" x2="300" y2="750" style="stroke:silver;"/>
  <line x1="300" y1="590" x2="300" y2="830" style="stroke:silver;"/>
  <line x1="300" y1="590" x2="300" y2="910" style="stroke:silver;"/>
  <line x1="300" y1="670" x2="300" y2="750" style="stroke:silver;"/>
  <line x1="300" y1="670" x2="300" y2="830" style="stroke:silver;"/>
  <line x1="300" y1="670" x2="300" y2="910" style="stroke:silver;"/>
  <line x1="300" y1="750" x2="300" y2="830" style="stroke:silver;"/>
  <line x1="300" y1="750" x2="300" y2="910" style="stroke:silver;"/>
  <line x1="300" y1="830" x2="300" y2="910" style="stroke:silver;"/>
  <rect x="950" y="20" width="200" height="20" style="fill:chartreuse; stroke: black;"/>1
  <text x="952" y="33">THERMAL ZONE 1</text>
  <rect x="200" y="500" width="200" height="20" style="fill:snow; stroke: black;"/>7
  <text x="202" y="513">OutdoorAir:NodeList</text>
  <rect x="200" y="580" width="200" height="20" style="fill:snow; stroke: black;"/>8
  <text x="202" y="593">OutdoorAir:NodeList</text>
  <rect x="200" y="660" width="200" height="20" style="fill:snow; stroke: black;"/>9
  <text x="202" y="673">OutdoorAir:NodeList</text>
  <rect x="200" y="740" width="200" height="20" style="fill:snow; stroke: black;"/>10
  <text x="202" y="753">OutdoorAir:NodeList</text>
  <rect x="200" y="820" width="200" height="20" style="fill:snow; stroke: black;"/>11
  <text x="202" y="833">OutdoorAir:NodeList</text>
  <rect x="200" y="900" width="200" height="20" style="fill:snow; stroke: black;"/>12
  <text x="202" y="913">OutdoorAir:NodeList</text>
  <rect x="2450" y="20" width="200" height="20" style="fill:wheat; stroke: black;"/>38
  <text x="2452" y="33">AIR LOOP HVAC ZONE SPLITTER 1</text>
  <rect x="2450" y="100" width="200" height="20" style="fill:wheat; stroke: black;"/>39
  <text x="2452" y="113">AIR LOOP HVAC ZONE SPLITTER 2</text>
  <rect x="2450" y="180" width="200" height="20" style="fill:wheat; stroke: black;"/>40
  <text x="2452" y="193">AIR LOOP HVAC ZONE SPLITTER 3</text>
  <rect x="2450" y="260" width="200" height="20" style="fill:wheat; stroke: black;"/>41
  <text x="2452" y="273">AIR LOOP HVAC ZONE SPLITTER 4</text>
  <rect x="2450" y="340" width="200" height="20" style="fill:wheat; stroke: black;"/>42
  <text x="2452" y="353">AIR LOOP HVAC ZONE SPLITTER 5</text>
  <rect x="2450" y="420" width="200" height="20" style="fill:wheat; stroke: black;"/>43
  <text x="2452" y="433">AIR LOOP HVAC ZONE SPLITTER 6</text>
  <rect x="200" y="20" width="200" height="20" style="fill:silver; stroke: black;"/>44
  <text x="202" y="33">FAN CONSTANT VOLUME 1</text>
  <rect x="200" y="100" width="200" height="20" style="fill:silver; stroke: black;"/>45
  <text x="202" y="113">FAN CONSTANT VOLUME 2</text>
  <rect x="200" y="180" width="200" height="20" style="fill:silver; stroke: black;"/>46
  <text x="202" y="193">FAN CONSTANT VOLUME 3</text>
  <rect x="200" y="260" width="200" height="20" style="fill:silver; stroke: black;"/>47
  <text x="202" y="273">FAN CONSTANT VOLUME 4</text>
  <rect x="200" y="340" width="200" height="20" style="fill:silver; stroke: black;"/>48
  <text x="202" y="353">FAN CONSTANT VOLUME 5</text>
  <rect x="200" y="420" width="200" height="20" style="fill:silver; stroke: black;"/>49
  <text x="202" y="433">FAN CONSTANT VOLUME 6</text>
  <rect x="2200" y="20" width="200" height="20" style="fill:silver; stroke: black;"/>50
  <text x="2202" y="33">FAN VARIABLE VOLUME 1</text>
  <rect x="2200" y="100" width="200" height="20" style="fill:silver; stroke: black;"/>51
  <text x="2202" y="113">FAN VARIABLE VOLUME 2</text>
  <rect x="2200" y="180" width="200" height="20" style="fill:silver; stroke: black;"/>52
  <text x="2202" y="193">FAN VARIABLE VOLUME 3</text>
  <rect x="2200" y="260" width="200" height="20" style="fill:silver; stroke: black;"/>53
  <text x="2202" y="273">FAN VARIABLE VOLUME 4</text>
  <rect x="2200" y="340" width="200" height="20" style="fill:silver; stroke: black;"/>54
  <text x="2202" y="353">FAN VARIABLE VOLUME 5</text>
  <rect x="2200" y="420" width="200" height="20" style="fill:silver; stroke: black;"/>55
  <text x="2202" y="433">FAN VARIABLE VOLUME 6</text>
  <rect x="450" y="20" width="200" height="20" style="fill:wheat; stroke: black;"/>56
  <text  x="452" y="28">AIR TERMINAL SINGLE DUCT PARALLEL
  <tspan x="452" y="36">PIU REHEAT 1 MIXER</tspan></text>
  <rect x="450" y="100" width="200" height="20" style="fill:wheat; stroke: black;"/>57
  <text  x="452" y="108">AIR TERMINAL SINGLE DUCT PARALLEL
  <tspan x="452" y="116">PIU REHEAT 2 MIXER</tspan></text>
  <rect x="450" y="180" width="200" height="20" style="fill:wheat; stroke: black;"/>58
  <text  x="452" y="188">AIR TERMINAL SINGLE DUCT PARALLEL
  <tspan x="452" y="196">PIU REHEAT 3 MIXER</tspan></text>
  <rect x="450" y="260" width="200" height="20" style="fill:wheat; stroke: black;"/>59
  <text  x="452" y="268">AIR TERMINAL SINGLE DUCT PARALLEL
  <tspan x="452" y="276">PIU REHEAT 4 MIXER</tspan></text>
  <rect x="450" y="340" width="200" height="20" style="fill:wheat; stroke: black;"/>60
  <text  x="452" y="348">AIR TERMINAL SINGLE DUCT PARALLEL
  <tspan x="452" y="356">PIU REHEAT 5 MIXER</tspan></text>
  <rect x="450" y="420" width="200" height="20" style="fill:wheat; stroke: black;"/>61
  <text  x="452" y="428">AIR TERMINAL SINGLE DUCT PARALLEL
  <tspan x="452" y="436">PIU REHEAT 6 MIXER</tspan></text>
  <rect x="1200" y="20" width="200" height="20" style="fill:wheat; stroke: black;"/>62
  <text x="1202" y="33">AIR LOOP HVAC ZONE MIXER 1</text>
  <rect x="1200" y="100" width="200" height="20" style="fill:wheat; stroke: black;"/>63
  <text x="1202" y="113">AIR LOOP HVAC ZONE MIXER 2</text>
  <rect x="1200" y="180" width="200" height="20" style="fill:wheat; stroke: black;"/>64
  <text x="1202" y="193">AIR LOOP HVAC ZONE MIXER 3</text>
  <rect x="1200" y="260" width="200" height="20" style="fill:wheat; stroke: black;"/>65
  <text x="1202" y="273">AIR LOOP HVAC ZONE MIXER 4</text>
  <rect x="1200" y="340" width="200" height="20" style="fill:wheat; stroke: black;"/>66
  <text x="1202" y="353">AIR LOOP HVAC ZONE MIXER 5</text>
  <rect x="1200" y="420" width="200" height="20" style="fill:wheat; stroke: black;"/>67
  <text x="1202" y="433">AIR LOOP HVAC ZONE MIXER 6</text>
  <rect x="700" y="20" width="200" height="20" style="fill:salmon; stroke: black;"/>68
  <text x="702" y="33">COIL HEATING ELECTRIC 2</text>
  <rect x="700" y="100" width="200" height="20" style="fill:salmon; stroke: black;"/>69
  <text x="702" y="113">COIL HEATING ELECTRIC 4</text>
  <rect x="700" y="180" width="200" height="20" style="fill:salmon; stroke: black;"/>70
  <text x="702" y="193">COIL HEATING ELECTRIC 6</text>
  <rect x="700" y="260" width="200" height="20" style="fill:salmon; stroke: black;"/>71
  <text x="702" y="273">COIL HEATING ELECTRIC 8</text>
  <rect x="700" y="340" width="200" height="20" style="fill:salmon; stroke: black;"/>72
  <text x="702" y="353">COIL HEATING ELECTRIC 10</text>
  <rect x="700" y="420" width="200" height="20" style="fill:salmon; stroke: black;"/>73
  <text x="702" y="433">COIL HEATING ELECTRIC 12</text>
  <rect x="1950" y="20" width="200" height="20" style="fill:salmon; stroke: black;"/>74
  <text x="1952" y="33">COIL HEATING ELECTRIC 1</text>
  <rect x="1950" y="100" width="200" height="20" style="fill:salmon; stroke: black;"/>75
  <text x="1952" y="113">COIL HEATING ELECTRIC 3</text>
  <rect x="1950" y="180" width="200" height="20" style="fill:salmon; stroke: black;"/>76
  <text x="1952" y="193">COIL HEATING ELECTRIC 5</text>
  <rect x="1950" y="260" width="200" height="20" style="fill:salmon; stroke: black;"/>77
  <text x="1952" y="273">COIL HEATING ELECTRIC 7</text>
  <rect x="1950" y="340" width="200" height="20" style="fill:salmon; stroke: black;"/>78
  <text x="1952" y="353">COIL HEATING ELECTRIC 9</text>
  <rect x="1950" y="420" width="200" height="20" style="fill:salmon; stroke: black;"/>79
  <text x="1952" y="433">COIL HEATING ELECTRIC 11</text>
  <rect x="1450" y="20" width="200" height="20" style="fill:lawngreen; stroke: black;"/>80
  <text  x="1452" y="28">AIR LOOP HVAC OUTDOOR AIR SYSTEM 1
  <tspan x="1452" y="36">OUTDOOR AIR MIXER</tspan></text>
  <rect x="1450" y="100" width="200" height="20" style="fill:lawngreen; stroke: black;"/>81
  <text  x="1452" y="108">AIR LOOP HVAC OUTDOOR AIR SYSTEM 2
  <tspan x="1452" y="116">OUTDOOR AIR MIXER</tspan></text>
  <rect x="1450" y="180" width="200" height="20" style="fill:lawngreen; stroke: black;"/>82
  <text  x="1452" y="188">AIR LOOP HVAC OUTDOOR AIR SYSTEM 3
  <tspan x="1452" y="196">OUTDOOR AIR MIXER</tspan></text>
  <rect x="1450" y="260" width="200" height="20" style="fill:lawngreen; stroke: black;"/>83
  <text  x="1452" y="268">AIR LOOP HVAC OUTDOOR AIR SYSTEM 4
  <tspan x="1452" y="276">OUTDOOR AIR MIXER</tspan></text>
  <rect x="1450" y="340" width="200" height="20" style="fill:lawngreen; stroke: black;"/>84
  <text  x="1452" y="348">AIR LOOP HVAC OUTDOOR AIR SYSTEM 5
  <tspan x="1452" y="356">OUTDOOR AIR MIXER</tspan></text>
  <rect x="1450" y="420" width="200" height="20" style="fill:lawngreen; stroke: black;"/>85
  <text  x="1452" y="428">AIR LOOP HVAC OUTDOOR AIR SYSTEM 6
  <tspan x="1452" y="436">OUTDOOR AIR MIXER</tspan></text>
  <rect x="1700" y="20" width="200" height="20" style="fill:skyblue; stroke: black;"/>92
  <text x="1702" y="33">COIL COOLING DX TWO SPEED 1</text>
  <rect x="1700" y="100" width="200" height="20" style="fill:skyblue; stroke: black;"/>93
  <text x="1702" y="113">COIL COOLING DX TWO SPEED 2</text>
  <rect x="1700" y="180" width="200" height="20" style="fill:skyblue; stroke: black;"/>94
  <text x="1702" y="193">COIL COOLING DX TWO SPEED 3</text>
  <rect x="1700" y="260" width="200" height="20" style="fill:skyblue; stroke: black;"/>95
  <text x="1702" y="273">COIL COOLING DX TWO SPEED 4</text>
  <rect x="1700" y="340" width="200" height="20" style="fill:skyblue; stroke: black;"/>96
  <text x="1702" y="353">COIL COOLING DX TWO SPEED 5</text>
  <rect x="1700" y="420" width="200" height="20" style="fill:skyblue; stroke: black;"/>97
  <text x="1702" y="433">COIL COOLING DX TWO SPEED 6</text>
  <rect x="950" y="100" width="200" height="20" style="fill:chartreuse; stroke: black;"/>98
  <text x="952" y="113">THERMAL ZONE 2</text>
  <rect x="950" y="180" width="200" height="20" style="fill:chartreuse; stroke: black;"/>99
  <text x="952" y="193">THERMAL ZONE 3</text>
  <rect x="950" y="260" width="200" height="20" style="fill:chartreuse; stroke: black;"/>100
  <text x="952" y="273">THERMAL ZONE 4</text>
  <rect x="950" y="340" width="200" height="20" style="fill:chartreuse; stroke: black;"/>101
  <text x="952" y="353">THERMAL ZONE 5</text>
  <rect x="950" y="420" width="200" height="20" style="fill:chartreuse; stroke: black;"/>102
  <text x="952" y="433">THERMAL ZONE 6</text>
  <line x1="400" y1="510" x2="400" y2="510" style="stroke:black;"/>
  <line x1="400" y1="510" x2="400" y2="510" style="stroke:black;"/>
  <line x1="400" y1="510" x2="1450" y2="30" style="stroke:black;"/>
  <line x1="400" y1="590" x2="400" y2="590" style="stroke:black;"/>
  <line x1="400" y1="590" x2="400" y2="590" style="stroke:black;"/>
  <line x1="400" y1="590" x2="1450" y2="110" style="stroke:black;"/>
  <line x1="400" y1="670" x2="400" y2="670" style="stroke:black;"/>
  <line x1="400" y1="670" x2="400" y2="670" style="stroke:black;"/>
  <line x1="400" y1="670" x2="1450" y2="190" style="stroke:black;"/>
  <line x1="400" y1="750" x2="400" y2="750" style="stroke:black;"/>
  <line x1="400" y1="750" x2="400" y2="750" style="stroke:black;"/>
  <line x1="400" y1="750" x2="1450" y2="270" style="stroke:black;"/>
  <line x1="400" y1="830" x2="400" y2="830" style="stroke:black;"/>
  <line x1="400" y1="830" x2="400" y2="830" style="stroke:black;"/>
  <line x1="400" y1="830" x2="1450" y2="350" style="stroke:black;"/>
  <line x1="400" y1="910" x2="400" y2="910" style="stroke:black;"/>
  <line x1="400" y1="910" x2="400" y2="910" style="stroke:black;"/>
  <line x1="400" y1="910" x2="1450" y2="430" style="stroke:black;"/>
  <line x1="2650" y1="30" x2="450" y2="30" style="stroke:black;"/>
  <line x1="2650" y1="110" x2="450" y2="110" style="stroke:black;"/>
  <line x1="2650" y1="190" x2="450" y2="190" style="stroke:black;"/>
  <line x1="2650" y1="270" x2="450" y2="270" style="stroke:black;"/>
  <line x1="2650" y1="350" x2="450" y2="350" style="stroke:black;"/>
  <line x1="2650" y1="430" x2="450" y2="430" style="stroke:black;"/>
  <line x1="400" y1="30" x2="450" y2="30" style="stroke:black;"/>
  <line x1="400" y1="110" x2="450" y2="110" style="stroke:black;"/>
  <line x1="400" y1="190" x2="450" y2="190" style="stroke:black;"/>
  <line x1="400" y1="270" x2="450" y2="270" style="stroke:black;"/>
  <line x1="400" y1="350" x2="450" y2="350" style="stroke:black;"/>
  <line x1="400" y1="430" x2="450" y2="430" style="stroke:black;"/>
  <line x1="2400" y1="30" x2="2450" y2="30" style="stroke:black;"/>
  <line x1="2400" y1="110" x2="2450" y2="110" style="stroke:black;"/>
  <line x1="2400" y1="190" x2="2450" y2="190" style="stroke:black;"/>
  <line x1="2400" y1="270" x2="2450" y2="270" style="stroke:black;"/>
  <line x1="2400" y1="350" x2="2450" y2="350" style="stroke:black;"/>
  <line x1="2400" y1="430" x2="2450" y2="430" style="stroke:black;"/>
  <line x1="650" y1="30" x2="700" y2="30" style="stroke:black;"/>
  <line x1="650" y1="110" x2="700" y2="110" style="stroke:black;"/>
  <line x1="650" y1="190" x2="700" y2="190" style="stroke:black;"/>
  <line x1="650" y1="270" x2="700" y2="270" style="stroke:black;"/>
  <line x1="650" y1="350" x2="700" y2="350" style="stroke:black;"/>
  <line x1="650" y1="430" x2="700" y2="430" style="stroke:black;"/>
  <line x1="1400" y1="30" x2="1450" y2="30" style="stroke:black;"/>
  <line x1="1400" y1="110" x2="1450" y2="110" style="stroke:black;"/>
  <line x1="1400" y1="190" x2="1450" y2="190" style="stroke:black;"/>
  <line x1="1400" y1="270" x2="1450" y2="270" style="stroke:black;"/>
  <line x1="1400" y1="350" x2="1450" y2="350" style="stroke:black;"/>
  <line x1="1400" y1="430" x2="1450" y2="430" style="stroke:black;"/>
  <line x1="900" y1="30" x2="950" y2="30" style="stroke:black;"/>
  <line x1="900" y1="110" x2="950" y2="110" style="stroke:black;"/>
  <line x1="900" y1="190" x2="950" y2="190" style="stroke:black;"/>
  <line x1="900" y1="270" x2="950" y2="270" style="stroke:black;"/>
  <line x1="900" y1="350" x2="950" y2="350" style="stroke:black;"/>
  <line x1="900" y1="430" x2="950" y2="430" style="stroke:black;"/>
  <line x1="2150" y1="30" x2="2200" y2="30" style="stroke:black;"/>
  <line x1="2150" y1="110" x2="2200" y2="110" style="stroke:black;"/>
  <line x1="2150" y1="190" x2="2200" y2="190" style="stroke:black;"/>
  <line x1="2150" y1="270" x2="2200" y2="270" style="stroke:black;"/>
  <line x1="2150" y1="350" x2="2200" y2="350" style="stroke:black;"/>
  <line x1="2150" y1="430" x2="2200" y2="430" style="stroke:black;"/>
  <line x1="1650" y1="30" x2="1700" y2="30" style="stroke:black;"/>
  <line x1="1650" y1="110" x2="1700" y2="110" style="stroke:black;"/>
  <line x1="1650" y1="190" x2="1700" y2="190" style="stroke:black;"/>
  <line x1="1650" y1="270" x2="1700" y2="270" style="stroke:black;"/>
  <line x1="1650" y1="350" x2="1700" y2="350" style="stroke:black;"/>
  <line x1="1650" y1="430" x2="1700" y2="430" style="stroke:black;"/>
  <line x1="1900" y1="30" x2="1950" y2="30" style="stroke:black;"/>
  <line x1="1900" y1="110" x2="1950" y2="110" style="stroke:black;"/>
  <line x1="1900" y1="190" x2="1950" y2="190" style="stroke:black;"/>
  <line x1="1900" y1="270" x2="1950" y2="270" style="stroke:black;"/>
  <line x1="1900" y1="350" x2="1950" y2="350" style="stroke:black;"/>
  <line x1="1900" y1="430" x2="1950" y2="430" style="stroke:black;"/>
  <line x1="1150" y1="30" x2="1200" y2="30" style="stroke:black;"/>
  <line x1="1150" y1="110" x2="1200" y2="110" style="stroke:black;"/>
  <line x1="1150" y1="190" x2="1200" y2="190" style="stroke:black;"/>
  <line x1="1150" y1="270" x2="1200" y2="270" style="stroke:black;"/>
  <line x1="1150" y1="350" x2="1200" y2="350" style="stroke:black;"/>
  <line x1="1150" y1="430" x2="1200" y2="430" style="stroke:black;"/>
  <text x="200" y="960">Unused Non-Parent Objects:</text>
  <text x="220" y="980">OutdoorAir:Node</text>
  <text x="220" y="1000">SETPOINT MANAGER SCHEDULED 1</text>
  <text x="220" y="1020">SETPOINT MANAGER SCHEDULED 2</text>
  <text x="220" y="1040">SETPOINT MANAGER SCHEDULED 3</text>
  <text x="220" y="1060">SETPOINT MANAGER SCHEDULED 4</text>
  <text x="220" y="1080">SETPOINT MANAGER SCHEDULED 5</text>
  <text x="220" y="1100">SETPOINT MANAGER SCHEDULED 6</text>
  <text x="220" y="1120">NODE 15 OS DEFAULT SPM</text>
  <text x="220" y="1140">NODE 16 OS DEFAULT SPM</text>
  <text x="220" y="1160">NODE 17 OS DEFAULT SPM</text>
  <text x="220" y="1180">NODE 28 OS DEFAULT SPM</text>
  <text x="220" y="1200">NODE 29 OS DEFAULT SPM</text>
  <text x="220" y="1220">NODE 30 OS DEFAULT SPM</text>
  <text x="220" y="1240">NODE 41 OS DEFAULT SPM</text>
  <text x="220" y="1260">NODE 42 OS DEFAULT SPM</text>
  <text x="220" y="1280">NODE 43 OS DEFAULT SPM</text>
  <text x="220" y="1300">NODE 54 OS DEFAULT SPM</text>
  <text x="220" y="1320">NODE 55 OS DEFAULT SPM</text>
  <text x="220" y="1340">NODE 56 OS DEFAULT SPM</text>
  <text x="220" y="1360">NODE 67 OS DEFAULT SPM</text>
  <text x="220" y="1380">NODE 68 OS DEFAULT SPM</text>
  <text x="220" y="1400">NODE 69 OS DEFAULT SPM</text>
  <text x="220" y="1420">NODE 80 OS DEFAULT SPM</text>
  <text x="220" y="1440">NODE 81 OS DEFAULT SPM</text>
  <text x="220" y="1460">NODE 82 OS DEFAULT SPM</text>
  <text x="220" y="1480">CONTROLLER OUTDOOR AIR 1</text>
  <text x="220" y="1500">CONTROLLER OUTDOOR AIR 2</text>
  <text x="220" y="1520">CONTROLLER OUTDOOR AIR 3</text>
  <text x="220" y="1540">CONTROLLER OUTDOOR AIR 4</text>
  <text x="220" y="1560">CONTROLLER OUTDOOR AIR 5</text>
  <text x="220" y="1580">CONTROLLER OUTDOOR AIR 6</text>
  <text x="200" y="1620">
The following are not supported: objects related to controls or ZoneHVAC:IdealLoadsAirSystem</text>
</g>
</svg>
